<svg id="Grupo_285" data-name="Grupo 285" xmlns="http://www.w3.org/2000/svg" width="640" height="171.446" viewBox="0 0 640 171.446">
  <path id="Trazado_277" data-name="Trazado 277" d="M725.175,352.4H256.621a80.931,80.931,0,1,0,0,161.862H725.175a80.931,80.931,0,1,0,0-161.862" transform="translate(-166.106 -342.82)" fill="#1a237e"/>
  <path id="Trazado_278" data-name="Trazado 278" d="M722.175,349.4H253.621a80.931,80.931,0,0,0,0,161.862H722.175a80.931,80.931,0,1,0,0-161.862" transform="translate(-172.69 -349.404)" fill="#7986cb"/>
  <path id="Trazado_295" data-name="Trazado 295" d="M12.711-7.182H16.7q5.3,0,8.18-3.306t2.878-9.348a11.568,11.568,0,0,0-2.907-8.237q-2.907-3.106-8.208-3.106H12.711ZM3.7-38.418H16.929q8.664,0,14.193,5.33a17.659,17.659,0,0,1,5.529,13.253q0,9.234-5.444,14.535T16.815,0H3.7ZM51.471-7.011H66.519V0H42.636V-38.418H66.291v7.011H51.471v8.721H64.695v6.954H51.471Zm44.346-29.7V-28.5a18.829,18.829,0,0,0-9.576-2.679,5.423,5.423,0,0,0-3.392.912,2.837,2.837,0,0,0-1.169,2.337,3.192,3.192,0,0,0,1.425,2.537,20.807,20.807,0,0,0,4.275,2.365q1.767.8,2.935,1.4A23.623,23.623,0,0,1,93-19.978a10.488,10.488,0,0,1,2.394,2.223,11.063,11.063,0,0,1,1.51,2.878,10.682,10.682,0,0,1,.627,3.705,10.473,10.473,0,0,1-3.819,8.407Q89.889.456,83.562.456,76.779.456,72.5-1.938v-8.835A18.5,18.5,0,0,0,83.562-7.011a5.107,5.107,0,0,0,3.306-1.055,3.377,3.377,0,0,0,1.311-2.764,3.4,3.4,0,0,0-.171-1.083,2.493,2.493,0,0,0-.627-.969,7.727,7.727,0,0,0-.884-.769,9.939,9.939,0,0,0-1.254-.741q-.826-.427-1.4-.712t-1.681-.8q-1.112-.513-1.8-.8a18,18,0,0,1-5.956-4.218,9.608,9.608,0,0,1-2.252-6.669A9.931,9.931,0,0,1,75.81-35.6q3.648-3.05,10.089-3.049A23.322,23.322,0,0,1,95.817-36.708Zm35.511-.057v8.436a17.847,17.847,0,0,0-9.519-2.622,10.388,10.388,0,0,0-7.752,3.22,11.85,11.85,0,0,0-3.135,8.635,11.3,11.3,0,0,0,3.135,8.408,11.008,11.008,0,0,0,8.094,3.107,15.34,15.34,0,0,0,9.177-2.736V-1.71Q127.851.456,121.3.456a19.575,19.575,0,0,1-14.107-5.443q-5.671-5.444-5.672-14.108,0-8.778,5.5-14.307t14.335-5.529Q127.851-38.931,131.328-36.765Zm17.784,21.831h9.234l-.4-1.368q-1.653-5.586-2.707-9.519t-1.283-5.073l-.228-1.14q-.456,3.135-4.218,15.732ZM162.792,0l-2.337-7.866H147L144.666,0h-9.177l12.825-38.418h11.058L172.2,0Zm23.2-31.293v10.83h4.161q5.7,0,5.7-5.586A5.031,5.031,0,0,0,194.37-29.9a5.663,5.663,0,0,0-4.047-1.4ZM196.992,0,188.67-13.338h-2.679V0h-8.778V-38.418h13.281q6.441,0,10.346,3.42a11.265,11.265,0,0,1,3.9,8.892q0,8.208-7.011,11.343L207.48,0Zm48.336-22.914v19.38Q239.856.456,231.534.456q-9.234,0-14.991-5.3t-5.757-14.421q0-9.006,6.014-14.421T232.047-39.1a24.594,24.594,0,0,1,11.229,2.394v8.778a22.324,22.324,0,0,0-11.229-3.135,11.573,11.573,0,0,0-8.607,3.221,11.652,11.652,0,0,0-3.192,8.578,11.75,11.75,0,0,0,3.135,8.607,11.437,11.437,0,0,0,8.55,3.192,16.3,16.3,0,0,0,4.845-.741v-7.239h-6.213v-7.467Zm18.354,7.98h9.234l-.4-1.368q-1.653-5.586-2.707-9.519t-1.283-5.073l-.228-1.14q-.456,3.135-4.218,15.732ZM277.362,0l-2.337-7.866H261.573L259.236,0h-9.177l12.825-38.418h11.058L286.767,0Zm23.2-31.293v10.83h4.161q5.7,0,5.7-5.586A5.031,5.031,0,0,0,308.94-29.9a5.663,5.663,0,0,0-4.047-1.4ZM311.562,0,303.24-13.338h-2.679V0h-8.778V-38.418h13.281q6.441,0,10.346,3.42a11.265,11.265,0,0,1,3.9,8.892q0,8.208-7.011,11.343L322.05,0Z" transform="translate(199.667 98.586)" fill="#1a237e"/>
  <path id="Trazado_280" data-name="Trazado 280" d="M445.049,399.871h-221.5a3.195,3.195,0,1,1,0-6.389h221.5a3.195,3.195,0,1,1,0,6.389" transform="translate(-68.076 -252.667)" fill="#fce4ec"/>
  <path id="Trazado_281" data-name="Trazado 281" d="M368.111,399.871H304.218a3.195,3.195,0,1,1,0-6.389h63.894a3.195,3.195,0,1,1,0,6.389" transform="translate(108.96 -252.667)" fill="#fce4ec"/>
  <path id="Trazado_282" data-name="Trazado 282" d="M350.024,399.871H334.051a3.195,3.195,0,1,1,0-6.389h15.973a3.195,3.195,0,1,1,0,6.389" transform="translate(174.434 -252.667)" fill="#fce4ec"/>
  <g id="Navegación" transform="translate(152.282 58.044) rotate(90)">
    <path id="Trazado_173" data-name="Trazado 173" d="M10.552,79.793a5.246,5.246,0,0,0,7.433,0l34.9-34.9a4.182,4.182,0,0,0,0-5.921l-34.9-34.9a5.256,5.256,0,1,0-7.433,7.433l30.4,30.444L10.51,72.4A5.234,5.234,0,0,0,10.552,79.793Z" transform="translate(-9.003 -2.539)" fill="#1a237e"/>
  </g>
</svg>
