<svg id="Capa_1" data-name="Capa 1" xmlns="http://www.w3.org/2000/svg" viewBox="0 0 248.99 295.95"><defs><style>.cls-1{font-size:35px;fill:#1b2579;font-family:Hind-Bold, Hind;font-weight:700;}.cls-2{fill:#7986cb;}</style></defs><text class="cls-1" transform="translate(35.04 221.7)">Personaliza<tspan x="8.87" y="42">tu destino</tspan></text><g id="Mapa_relleno" data-name="Mapa relleno"><g id="Grupo_171" data-name="Grupo 171"><g id="Grupo_161" data-name="Grupo 161"><path id="Trazado_160" data-name="Trazado 160" class="cls-2" d="M343.13,200.32l-10.6-83-18.35-4.1V188Z" transform="translate(-153.01 -50.05)"/><path id="Trazado_161" data-name="Trazado 161" class="cls-2" d="M222.15,117.28l-10,83.31,28.92-11.69V113Z" transform="translate(-153.01 -50.05)"/><path id="Trazado_162" data-name="Trazado 162" class="cls-2" d="M356.24,209.12,343.8,111.64a6,6,0,0,0-4.6-5L309.67,100a5.87,5.87,0,0,0-2.7,0l-6.91,1.68-10.15,14.69,12.38-3v-6.16a5.95,5.95,0,0,1,11.89,0v6l18.35,4.1,10.6,83L314.18,188v2a5.95,5.95,0,0,1-11.89.16v-1l-24.1,14-25.26-13.68v3.53a5.95,5.95,0,0,1-11.89,0v-4l-28.91,11.69,10-83.31L241,113v-3.36a5.95,5.95,0,1,1,11.89-.15V113L265.38,116l-10.21-14.76-6.24-1.55a6.14,6.14,0,0,0-2.73,0l-30.75,6.91a5.94,5.94,0,0,0-4.6,5.09l-11.72,97.47a5.94,5.94,0,0,0,5.18,6.62,5.79,5.79,0,0,0,.72,0,6.1,6.1,0,0,0,2.23-.43l39.36-15.91,28.84,15.62a5.92,5.92,0,0,0,5.81-.08l28-16.23L348,215.34a5.94,5.94,0,0,0,7.8-3.13,6,6,0,0,0,.43-3.09Z" transform="translate(-153.01 -50.05)"/><path id="Trazado_163" data-name="Trazado 163" class="cls-2" d="M273.08,117.93l-1.43-2.07-8.78-12.69-7.7-1.9L265.38,116Z" transform="translate(-153.01 -50.05)"/><path id="Trazado_164" data-name="Trazado 164" class="cls-2" d="M288.45,109.27l-6.21,9,7.67-1.87,10.15-14.69-7.67,1.86Z" transform="translate(-153.01 -50.05)"/><path id="Trazado_165" data-name="Trazado 165" class="cls-2" d="M247.43,111.6,241,113V188.9l3.72-1.5a5.9,5.9,0,0,1,5.06.28l3.11,1.7V113Z" transform="translate(-153.01 -50.05)"/><path id="Trazado_166" data-name="Trazado 166" class="cls-2" d="M252.93,113v-3.28a5.95,5.95,0,1,0-11.89-.15V113l6.39-1.44Z" transform="translate(-153.01 -50.05)"/><path id="Trazado_167" data-name="Trazado 167" class="cls-2" d="M247,187a5.91,5.91,0,0,0-2.23.44l-3.72,1.5v4a5.95,5.95,0,0,0,11.89,0v-3.53l-3.11-1.7A5.94,5.94,0,0,0,247,187Z" transform="translate(-153.01 -50.05)"/><path id="Trazado_168" data-name="Trazado 168" class="cls-2" d="M305.9,187a6,6,0,0,1,5.31-.32l3,1.27V113.19l-5.76-1.29-6.13,1.49v75.7Z" transform="translate(-153.01 -50.05)"/><path id="Trazado_169" data-name="Trazado 169" class="cls-2" d="M314.18,113.19v-6a5.95,5.95,0,0,0-11.89,0v6.16l6.13-1.49Z" transform="translate(-153.01 -50.05)"/><path id="Trazado_170" data-name="Trazado 170" class="cls-2" d="M305.9,187l-3.61,2.09V190a5.95,5.95,0,0,0,11.89.15V188l-3-1.27A6,6,0,0,0,305.9,187Z" transform="translate(-153.01 -50.05)"/></g><path id="Trazado_171" data-name="Trazado 171" class="cls-2" d="M308.31,80.69a30.62,30.62,0,0,0-29.89-30.6l-.74,0h0l.74,0c-.3,0-.6,0-.9,0a7.78,7.78,0,0,0-1,.05,8.59,8.59,0,0,0,.76,17.13h.21l.32,0a13.47,13.47,0,1,1-13.63,13.47v-.27c0-.23,0-.47,0-.71v0a8.59,8.59,0,0,0-17.1-1.16,9.36,9.36,0,0,0-.08,1.18c0,.14,0,.27,0,.41s0,.38,0,.57a30.41,30.41,0,0,0,4.33,15.69h0l0,.06q13.14,19.92,26.27,39.86,13.05-19.83,26.12-39.65v0h0A30.58,30.58,0,0,0,308.31,80.69Z" transform="translate(-153.01 -50.05)"/></g><g id="Grupo_172" data-name="Grupo 172"><g id="Grupo_161-2" data-name="Grupo 161-2"><path id="Trazado_160-2" data-name="Trazado 160-2" class="cls-2" d="M343.13,200.32l-10.6-83-18.35-4.1V188Z" transform="translate(-153.01 -50.05)"/><path id="Trazado_161-2" data-name="Trazado 161-2" class="cls-2" d="M222.15,117.28l-10,83.31,28.92-11.69V113Z" transform="translate(-153.01 -50.05)"/><path id="Trazado_162-2" data-name="Trazado 162-2" class="cls-2" d="M356.24,209.12,343.8,111.64a6,6,0,0,0-4.6-5L309.67,100a5.87,5.87,0,0,0-2.7,0l-6.91,1.68-10.15,14.69,12.38-3v-6.16a5.95,5.95,0,0,1,11.89,0v6l18.35,4.1,10.6,83L314.18,188v2a5.95,5.95,0,0,1-11.89.16v-1l-24.1,14-25.26-13.68v3.53a5.95,5.95,0,0,1-11.89,0v-4l-28.91,11.69,10-83.31L241,113v-3.36a5.95,5.95,0,1,1,11.89-.15V113L265.38,116l-10.21-14.76-6.24-1.55a6.14,6.14,0,0,0-2.73,0l-30.75,6.91a5.94,5.94,0,0,0-4.6,5.09l-11.72,97.47a5.94,5.94,0,0,0,5.18,6.62,5.79,5.79,0,0,0,.72,0,6.1,6.1,0,0,0,2.23-.43l39.36-15.91,28.84,15.62a5.92,5.92,0,0,0,5.81-.08l28-16.23L348,215.34a5.94,5.94,0,0,0,7.8-3.13,6,6,0,0,0,.43-3.09Z" transform="translate(-153.01 -50.05)"/><path id="Trazado_163-2" data-name="Trazado 163-2" class="cls-2" d="M273.08,117.93l-1.43-2.07-8.78-12.69-7.7-1.9L265.38,116Z" transform="translate(-153.01 -50.05)"/><path id="Trazado_164-2" data-name="Trazado 164-2" class="cls-2" d="M288.45,109.27l-6.21,9,7.67-1.87,10.15-14.69-7.67,1.86Z" transform="translate(-153.01 -50.05)"/><path id="Trazado_165-2" data-name="Trazado 165-2" class="cls-2" d="M247.43,111.6,241,113V188.9l3.72-1.5a5.9,5.9,0,0,1,5.06.28l3.11,1.7V113Z" transform="translate(-153.01 -50.05)"/><path id="Trazado_166-2" data-name="Trazado 166-2" class="cls-2" d="M252.93,113v-3.28a5.95,5.95,0,1,0-11.89-.15V113l6.39-1.44Z" transform="translate(-153.01 -50.05)"/><path id="Trazado_167-2" data-name="Trazado 167-2" class="cls-2" d="M247,187a5.91,5.91,0,0,0-2.23.44l-3.72,1.5v4a5.95,5.95,0,0,0,11.89,0v-3.53l-3.11-1.7A5.94,5.94,0,0,0,247,187Z" transform="translate(-153.01 -50.05)"/><path id="Trazado_168-2" data-name="Trazado 168-2" class="cls-2" d="M305.9,187a6,6,0,0,1,5.31-.32l3,1.27V113.19l-5.76-1.29-6.13,1.49v75.7Z" transform="translate(-153.01 -50.05)"/><path id="Trazado_169-2" data-name="Trazado 169-2" class="cls-2" d="M314.18,113.19v-6a5.95,5.95,0,0,0-11.89,0v6.16l6.13-1.49Z" transform="translate(-153.01 -50.05)"/><path id="Trazado_170-2" data-name="Trazado 170-2" class="cls-2" d="M305.9,187l-3.61,2.09V190a5.95,5.95,0,0,0,11.89.15V188l-3-1.27A6,6,0,0,0,305.9,187Z" transform="translate(-153.01 -50.05)"/></g><path id="Trazado_171-2" data-name="Trazado 171-2" class="cls-2" d="M308.31,80.69a30.62,30.62,0,0,0-29.89-30.6l-.74,0h0l.74,0c-.3,0-.6,0-.9,0a7.78,7.78,0,0,0-1,.05,8.59,8.59,0,0,0,.76,17.13h.21l.32,0a13.47,13.47,0,1,1-13.63,13.47v-.27c0-.23,0-.47,0-.71v0a8.59,8.59,0,0,0-17.1-1.16,9.36,9.36,0,0,0-.08,1.18c0,.14,0,.27,0,.41s0,.38,0,.57a30.41,30.41,0,0,0,4.33,15.69h0l0,.06q13.14,19.92,26.27,39.86,13.05-19.83,26.12-39.65v0h0A30.58,30.58,0,0,0,308.31,80.69Z" transform="translate(-153.01 -50.05)"/></g></g></svg>