<svg id="Capa_1" data-name="Capa 1" xmlns="http://www.w3.org/2000/svg" viewBox="0 0 188.39 291"><defs><style>.cls-1{font-size:35px;fill:#1b2579;font-family:Hind-Bold, Hind;font-weight:700;}.cls-2{fill:#7986cb;}</style></defs><text class="cls-1" transform="translate(25 216.75)">Consulta<tspan x="-18.69" y="42">incidencias</tspan></text><g id="Grupo_291" data-name="Grupo 291"><g id="Alerta_exclamación" data-name="Alerta exclamación"><path id="Trazado_195" data-name="Trazado 195" class="cls-2" d="M280,160.54a6.73,6.73,0,0,1-6.74-6.73h0v-35a6.74,6.74,0,0,1,13.48,0v35a6.74,6.74,0,0,1-6.74,6.74Z" transform="translate(-185.82 -55)"/><circle id="Elipse_164" data-name="Elipse 164" class="cls-2" cx="94.1" cy="124.58" r="7.14"/><path id="Trazado_196" data-name="Trazado 196" class="cls-2" d="M352.29,216.77H207.74a8.5,8.5,0,0,1-7.61-12.31L232,140.55a8.51,8.51,0,0,1,15.23,7.6l-25.76,51.6h117L280,82.56l-9.77,19.56A8.51,8.51,0,1,1,255,94.64l.06-.13,17.39-34.8a8.51,8.51,0,0,1,15.22,0l72.28,144.75a8.5,8.5,0,0,1-7.61,12.31Z" transform="translate(-185.82 -55)"/></g></g></svg>