<svg id="Capa_1" data-name="Capa 1" xmlns="http://www.w3.org/2000/svg" viewBox="0 0 302.99 293.47"><defs><style>.cls-1{font-size:35px;fill:#1b2579;font-family:Hind-Bold, Hind;font-weight:700;}.cls-2{fill:#f8f7f7;stroke:#7b87c6;stroke-linecap:round;stroke-width:4px;}.cls-3{fill:#7986cb;}</style></defs><text class="cls-1" transform="translate(17.15 219.22)">Viaja sin internet</text><g id="Grupo_293" data-name="Grupo 293"><path id="Trazado_260" data-name="Trazado 260" class="cls-2" d="M186.22,65.34,349.63,232" transform="translate(-126.01 -52.53)"/><g id="Mapa_relleno" data-name="Mapa relleno"><g id="Grupo_171" data-name="Grupo 171"><g id="Grupo_161" data-name="Grupo 161"><path id="Trazado_160" data-name="Trazado 160" class="cls-3" d="M340.43,192l-9.84-77-17-3.8v69.35Z" transform="translate(-126.01 -52.53)"/><path id="Trazado_161" data-name="Trazado 161" class="cls-3" d="M228.2,114.9l-9.3,77.29,26.82-10.84V111Z" transform="translate(-126.01 -52.53)"/><path id="Trazado_162" data-name="Trazado 162" class="cls-3" d="M352.59,200.1,341,109.67a5.51,5.51,0,0,0-4.26-4.68l-27.4-6.12a5.42,5.42,0,0,0-2.5,0l-6.41,1.56q-4.7,6.81-9.42,13.63l11.49-2.79v-5.72a5.52,5.52,0,0,1,11,0v5.54l17,3.8,9.84,77-26.86-11.47v1.85a5.52,5.52,0,1,1-11,0h0v-.8l-22.36,13-23.43-12.69v3.28a5.52,5.52,0,0,1-11,0v-3.72L218.9,192.2l9.3-77.3L245.72,111v-3.12a5.52,5.52,0,0,1,11,0h0v3l11.56,2.85-9.48-13.69L253,98.61a5.54,5.54,0,0,0-2.53,0L222,105a5.5,5.5,0,0,0-4.27,4.71l-10.88,90.44a5.5,5.5,0,0,0,4.81,6.13,4.92,4.92,0,0,0,.67,0,5.48,5.48,0,0,0,2.07-.4l36.52-14.76,26.75,14.5a5.48,5.48,0,0,0,5.39-.08l26-15.06L345,205.88a5.51,5.51,0,0,0,7.64-5.77Z" transform="translate(-126.01 -52.53)"/><path id="Trazado_163" data-name="Trazado 163" class="cls-3" d="M275.44,115.51l-1.33-1.93L266,101.81l-7.14-1.76,9.47,13.69Z" transform="translate(-126.01 -52.53)"/><path id="Trazado_164" data-name="Trazado 164" class="cls-3" d="M289.7,107.47l-5.76,8.34,7.11-1.73,9.42-13.63-7.12,1.72Z" transform="translate(-126.01 -52.53)"/><path id="Trazado_165" data-name="Trazado 165" class="cls-3" d="M251.65,109.63,245.72,111v70.38l3.45-1.39a5.45,5.45,0,0,1,4.69.26l2.89,1.57v-70.9Z" transform="translate(-126.01 -52.53)"/><path id="Trazado_166" data-name="Trazado 166" class="cls-3" d="M256.75,110.89v-3a5.52,5.52,0,0,0-11,0h0V111l5.93-1.33Z" transform="translate(-126.01 -52.53)"/><path id="Trazado_167" data-name="Trazado 167" class="cls-3" d="M251.24,179.55a5.46,5.46,0,0,0-2.07.41l-3.45,1.39v3.72a5.52,5.52,0,0,0,11,0v-3.28l-2.89-1.57A5.43,5.43,0,0,0,251.24,179.55Z" transform="translate(-126.01 -52.53)"/><path id="Trazado_168" data-name="Trazado 168" class="cls-3" d="M305.88,179.58a5.61,5.61,0,0,1,4.94-.3l2.75,1.18V111.11l-5.34-1.2-5.69,1.38v70.24Z" transform="translate(-126.01 -52.53)"/><path id="Trazado_169" data-name="Trazado 169" class="cls-3" d="M313.57,111.11v-5.54a5.52,5.52,0,0,0-11,0v5.72l5.69-1.38Z" transform="translate(-126.01 -52.53)"/><path id="Trazado_170" data-name="Trazado 170" class="cls-3" d="M305.88,179.58l-3.34,1.95v.79a5.52,5.52,0,1,0,11,0h0v-1.85l-2.75-1.18A5.58,5.58,0,0,0,305.88,179.58Z" transform="translate(-126.01 -52.53)"/></g><path id="Trazado_171" data-name="Trazado 171" class="cls-3" d="M308.12,81a28.39,28.39,0,0,0-27.73-28.39l-.68,0h0l.68,0a7.56,7.56,0,0,0-.83,0c-.3,0-.6,0-.9,0a8,8,0,0,0,.7,15.89h.5A12.5,12.5,0,1,1,267.21,81v-.25q0-.33,0-.66v0A8,8,0,0,0,251.38,79a10,10,0,0,0-.08,1.1c0,.13,0,.25,0,.38s0,.35,0,.53a28.28,28.28,0,0,0,4,14.56h0l0,.06q12.2,18.47,24.38,37Q291.84,114.15,304,95.76h0A28.26,28.26,0,0,0,308.12,81Z" transform="translate(-126.01 -52.53)"/></g><g id="Grupo_172" data-name="Grupo 172"><g id="Grupo_161-2" data-name="Grupo 161-2"><path id="Trazado_160-2" data-name="Trazado 160-2" class="cls-3" d="M340.43,192l-9.84-77-17-3.8v69.35Z" transform="translate(-126.01 -52.53)"/><path id="Trazado_161-2" data-name="Trazado 161-2" class="cls-3" d="M228.2,114.9l-9.3,77.29,26.82-10.84V111Z" transform="translate(-126.01 -52.53)"/><path id="Trazado_162-2" data-name="Trazado 162-2" class="cls-3" d="M352.59,200.1,341,109.67a5.51,5.51,0,0,0-4.26-4.68l-27.4-6.12a5.42,5.42,0,0,0-2.5,0l-6.41,1.56q-4.7,6.81-9.42,13.63l11.49-2.79v-5.72a5.52,5.52,0,0,1,11,0v5.54l17,3.8,9.84,77-26.86-11.47v1.85a5.52,5.52,0,1,1-11,0h0v-.8l-22.36,13-23.43-12.69v3.28a5.52,5.52,0,0,1-11,0v-3.72L218.9,192.2l9.3-77.3L245.72,111v-3.12a5.52,5.52,0,0,1,11,0h0v3l11.56,2.85-9.48-13.69L253,98.61a5.54,5.54,0,0,0-2.53,0L222,105a5.5,5.5,0,0,0-4.27,4.71l-10.88,90.44a5.5,5.5,0,0,0,4.81,6.13,4.92,4.92,0,0,0,.67,0,5.48,5.48,0,0,0,2.07-.4l36.52-14.76,26.75,14.5a5.48,5.48,0,0,0,5.39-.08l26-15.06L345,205.88a5.51,5.51,0,0,0,7.64-5.77Z" transform="translate(-126.01 -52.53)"/><path id="Trazado_163-2" data-name="Trazado 163-2" class="cls-3" d="M275.44,115.51l-1.33-1.93L266,101.81l-7.14-1.76,9.47,13.69Z" transform="translate(-126.01 -52.53)"/><path id="Trazado_164-2" data-name="Trazado 164-2" class="cls-3" d="M289.7,107.47l-5.76,8.34,7.11-1.73,9.42-13.63-7.12,1.72Z" transform="translate(-126.01 -52.53)"/><path id="Trazado_165-2" data-name="Trazado 165-2" class="cls-3" d="M251.65,109.63,245.72,111v70.38l3.45-1.39a5.45,5.45,0,0,1,4.69.26l2.89,1.57v-70.9Z" transform="translate(-126.01 -52.53)"/><path id="Trazado_166-2" data-name="Trazado 166-2" class="cls-3" d="M256.75,110.89v-3a5.52,5.52,0,0,0-11,0h0V111l5.93-1.33Z" transform="translate(-126.01 -52.53)"/><path id="Trazado_167-2" data-name="Trazado 167-2" class="cls-3" d="M251.24,179.55a5.46,5.46,0,0,0-2.07.41l-3.45,1.39v3.72a5.52,5.52,0,0,0,11,0v-3.28l-2.89-1.57A5.43,5.43,0,0,0,251.24,179.55Z" transform="translate(-126.01 -52.53)"/><path id="Trazado_168-2" data-name="Trazado 168-2" class="cls-3" d="M305.88,179.58a5.61,5.61,0,0,1,4.94-.3l2.75,1.18V111.11l-5.34-1.2-5.69,1.38v70.24Z" transform="translate(-126.01 -52.53)"/><path id="Trazado_169-2" data-name="Trazado 169-2" class="cls-3" d="M313.57,111.11v-5.54a5.52,5.52,0,0,0-11,0v5.72l5.69-1.38Z" transform="translate(-126.01 -52.53)"/><path id="Trazado_170-2" data-name="Trazado 170-2" class="cls-3" d="M305.88,179.58l-3.34,1.95v.79a5.52,5.52,0,1,0,11,0h0v-1.85l-2.75-1.18A5.58,5.58,0,0,0,305.88,179.58Z" transform="translate(-126.01 -52.53)"/></g><path id="Trazado_171-2" data-name="Trazado 171-2" class="cls-3" d="M308.12,81a28.39,28.39,0,0,0-27.73-28.39l-.68,0h0l.68,0a7.56,7.56,0,0,0-.83,0c-.3,0-.6,0-.9,0a8,8,0,0,0,.7,15.89h.5A12.5,12.5,0,1,1,267.21,81v-.25q0-.33,0-.66v0A8,8,0,0,0,251.38,79a10,10,0,0,0-.08,1.1c0,.13,0,.25,0,.38s0,.35,0,.53a28.28,28.28,0,0,0,4,14.56h0l0,.06q12.2,18.47,24.38,37Q291.84,114.15,304,95.76h0A28.26,28.26,0,0,0,308.12,81Z" transform="translate(-126.01 -52.53)"/></g></g></g></svg>