<svg xmlns="http://www.w3.org/2000/svg" xmlns:xlink="http://www.w3.org/1999/xlink" width="393.439" height="469.501" viewBox="0 0 393.439 469.501">
  <defs>
    <linearGradient id="linear-gradient" y1="0.5" x2="1" y2="0.5" gradientUnits="objectBoundingBox">
      <stop offset="0" stop-color="#f3d9e1"/>
      <stop offset="0.409" stop-color="#aea8c6"/>
      <stop offset="0.81" stop-color="#707caf"/>
      <stop offset="1" stop-color="#596ba6"/>
    </linearGradient>
  </defs>
  <path id="Trazado_290" data-name="Trazado 290" d="M285.892,639.029c46.81,0,78.009-50.234,79.207-78.423,2.743-64.565,2.625-235.719,2.625-235.719s-1.89-38.844,37.138-41.17c39.862-2.368,39.422.413,39.422.413s32.994,1.144,36.1,36.292c0,0,.494,162.313.494,255.209,0,0-4.277,176.587-191.248,176.587,0,0-154.056,6.623-195.885-141.289,0,0-55.127-193.076,160.568-235.452,0,0,67.791-14.615,67.791,36.43l1.232,36.021s-1.171,34.62-33.078,40.34c0,0-86.553-5.727-86.553,80.657C203.7,568.924,202.809,639.029,285.892,639.029Z" transform="translate(-87.438 -282.761)" fill="url(#linear-gradient)"/>
</svg>
