<svg id="Capa_1" data-name="Capa 1" xmlns="http://www.w3.org/2000/svg" viewBox="0 0 302.99 287.83"><defs><style>.cls-1{font-size:35px;fill:#1b2579;font-family:Hind-Bold, Hind;font-weight:700;}.cls-2{fill:#7986cb;}</style></defs><text class="cls-1" transform="translate(26.11 213.58)">Paga al instante</text><g id="Tarjeta"><path id="Trazado_244" data-name="Trazado 244" class="cls-2" d="M350.16,58.19H286.23l-.61,0H250.88l-.62,0a9.67,9.67,0,0,0,0,19.3l.58,0h34.74c.2,0,.39,0,.58,0H348V102H195.06v.11a8.75,8.75,0,0,0-1.34-.11,9.68,9.68,0,0,0-9.66,9.28c0,.13,0,.27,0,.4v34.74c0,.14,0,.27,0,.4v49.49a17.1,17.1,0,0,0,17.08,17.09h149a17.1,17.1,0,0,0,17.1-17.09h0v-121a17.08,17.08,0,0,0-17.08-17.1ZM203.35,194.07V147.18a6.74,6.74,0,0,0,0-.79v-9.82H348v57.5Z" transform="translate(-126.01 -58.17)"/></g></svg>