<svg id="Capa_1" data-name="Capa 1" xmlns="http://www.w3.org/2000/svg" viewBox="0 0 248.99 288.39"><defs><style>.cls-1{font-size:35px;fill:#1b2579;font-family:Hind-Bold, Hind;font-weight:700;}.cls-2{fill:#7986cb;}</style></defs><text class="cls-1" transform="translate(28.55 214.13)">Consulta los <tspan x="6.42" y="42">códigos QR</tspan></text><g id="Grupo_292" data-name="Grupo 292"><g id="QR"><g id="Grupo_191" data-name="Grupo 191"><g id="Grupo_184" data-name="Grupo 184"><path id="Trazado_181" data-name="Trazado 181" class="cls-2" d="M217.26,215.39h37.28a18.7,18.7,0,0,0,18.63-18.64V159.48a18.68,18.68,0,0,0-18.63-18.63H217.26a18.68,18.68,0,0,0-18.63,18.63v37.27A18.71,18.71,0,0,0,217.26,215.39Zm0-55.91h37.28v37.27H217.26Z" transform="translate(-153.01 -57.61)"/><path id="Trazado_182" data-name="Trazado 182" class="cls-2" d="M281.84,76.27v37.27a18.7,18.7,0,0,0,18.63,18.64h37.28a18.7,18.7,0,0,0,18.63-18.64V76.27a18.7,18.7,0,0,0-18.63-18.63H300.47A18.71,18.71,0,0,0,281.84,76.27Zm55.91,37.27H300.47V76.27h37.28Z" transform="translate(-153.01 -57.61)"/><path id="Trazado_183" data-name="Trazado 183" class="cls-2" d="M356.38,210.72v-9.31a4.62,4.62,0,0,0-4.57-4.66H342.4a4.61,4.61,0,0,0-4.66,4.56v9.41a4.62,4.62,0,0,0,4.56,4.67h9.41a4.64,4.64,0,0,0,4.67-4.58Z" transform="translate(-153.01 -57.61)"/><path id="Trazado_184" data-name="Trazado 184" class="cls-2" d="M285.58,149.25v9.32a4.6,4.6,0,0,0,4.56,4.65h9.41a4.6,4.6,0,0,0,4.66-4.55v-9.42a4.61,4.61,0,0,0-4.56-4.66h-9.41a4.61,4.61,0,0,0-4.66,4.57Z" transform="translate(-153.01 -57.61)"/><path id="Trazado_185" data-name="Trazado 185" class="cls-2" d="M316.94,162h-9.32a4.63,4.63,0,0,0-4.66,4.58V176a4.61,4.61,0,0,0,4.57,4.65h9.41A4.6,4.6,0,0,0,321.6,176v-9.41A4.61,4.61,0,0,0,317,162Z" transform="translate(-153.01 -57.61)"/><path id="Trazado_186" data-name="Trazado 186" class="cls-2" d="M285.58,182.78v9.31a4.61,4.61,0,0,0,4.58,4.66h9.39a4.61,4.61,0,0,0,4.66-4.57v-9.4a4.62,4.62,0,0,0-4.56-4.67h-9.41a4.62,4.62,0,0,0-4.66,4.58Z" transform="translate(-153.01 -57.61)"/><path id="Trazado_187" data-name="Trazado 187" class="cls-2" d="M307.62,215.39h9.32a4.62,4.62,0,0,0,4.66-4.58v-9.4a4.61,4.61,0,0,0-4.57-4.66h-9.41a4.63,4.63,0,0,0-4.66,4.57v9.4a4.63,4.63,0,0,0,4.58,4.67Z" transform="translate(-153.01 -57.61)"/><path id="Trazado_188" data-name="Trazado 188" class="cls-2" d="M323.77,196.75h9.31a4.62,4.62,0,0,0,4.67-4.58v-9.39a4.63,4.63,0,0,0-4.58-4.67h-9.4a4.63,4.63,0,0,0-4.66,4.57v9.41a4.61,4.61,0,0,0,4.57,4.66Z" transform="translate(-153.01 -57.61)"/><path id="Trazado_189" data-name="Trazado 189" class="cls-2" d="M333.08,144.58h-9.31a4.63,4.63,0,0,0-4.66,4.57v9.42a4.6,4.6,0,0,0,4.55,4.65h9.42a4.61,4.61,0,0,0,4.67-4.56v-9.41a4.63,4.63,0,0,0-4.58-4.67Z" transform="translate(-153.01 -57.61)"/><path id="Trazado_190" data-name="Trazado 190" class="cls-2" d="M342.4,180.6h9.32a4.61,4.61,0,0,0,4.66-4.56v-9.41A4.62,4.62,0,0,0,351.8,162h-9.4a4.61,4.61,0,0,0-4.66,4.57V176a4.6,4.6,0,0,0,4.55,4.65Z" transform="translate(-153.01 -57.61)"/><g id="Grupo_164" data-name="Grupo 164"><path id="Trazado_191" data-name="Trazado 191" class="cls-2" d="M217.26,96.42V99a8.05,8.05,0,0,0,0-2.53Z" transform="translate(-153.01 -57.61)"/><path id="Trazado_192" data-name="Trazado 192" class="cls-2" d="M221.78,57.61l-.49,0h1C222.11,57.63,222,57.61,221.78,57.61Z" transform="translate(-153.01 -57.61)"/><path id="Trazado_193" data-name="Trazado 193" class="cls-2" d="M221.78,76.34a8,8,0,0,0,1.1-.07h-2.2A8.23,8.23,0,0,0,221.78,76.34Z" transform="translate(-153.01 -57.61)"/><path id="Trazado_194" data-name="Trazado 194" class="cls-2" d="M254.54,57.64H221.29a9.35,9.35,0,0,0-.61,18.63h33.86v37.27H217.26V96.42a9.36,9.36,0,0,0-18.63,1.27v15.85a18.7,18.7,0,0,0,18.63,18.64h37.28a18.69,18.69,0,0,0,18.63-18.64V76.27A18.68,18.68,0,0,0,254.54,57.64Z" transform="translate(-153.01 -57.61)"/></g></g></g></g></g></svg>