<svg id="Capa_1" data-name="Capa 1" xmlns="http://www.w3.org/2000/svg" viewBox="0 0 160.57 291"><defs><style>.cls-1{fill:#7986cb;}.cls-2{font-size:35px;fill:#1b2579;font-family:Hind-Bold, Hind;font-weight:700;}</style></defs><g id="Grupo_290" data-name="Grupo 290"><g id="Horarios"><path id="Trazado_118" data-name="Trazado 118" class="cls-1" d="M298.46,136.59a6.73,6.73,0,0,1-6.74-6.73h0V82.15A6.74,6.74,0,0,1,305.2,82v47.86a6.73,6.73,0,0,1-6.72,6.74Z" transform="translate(-218.61 -55)"/><path id="Trazado_119" data-name="Trazado 119" class="cls-1" d="M319.14,163.88a6.75,6.75,0,0,1-4.83-2l-19.64-20.1a6.74,6.74,0,1,1,9.58-9.48l.06.06L324,152.42a6.74,6.74,0,0,1-.09,9.53A6.82,6.82,0,0,1,319.14,163.88Z" transform="translate(-218.61 -55)"/><path id="Trazado_120" data-name="Trazado 120" class="cls-1" d="M299.37,216.77c-1,0-2,0-2.95-.06-32.5-1.22-52.56-22-59.67-30.8-5.51-6.87-18.32-25.61-18.14-51.29a78.09,78.09,0,0,1,3.3-21.9,7.29,7.29,0,0,1,14,4.17,63.76,63.76,0,0,0-2.69,17.83c-.14,21,10.39,36.41,14.93,42.06s21.6,24.33,48.85,25.36c.8,0,1.6,0,2.39,0,22.47,0,38.05-12,43.83-17.26,20-18.32,21.44-42.63,21.4-49.64,0-6.49-1.54-29-19.15-46.57C334.28,77.6,319.5,71.05,302.69,69.77a69,69,0,0,0-22.35,2,7.29,7.29,0,0,1-3.55-14.15,84.45,84.45,0,0,1,27-2.37c20.32,1.54,38.28,9.55,51.94,23.16,21.55,21.46,23.39,48.9,23.43,56.8.06,8.54-1.67,38.11-26.13,60.5C346,202.15,326.93,216.77,299.37,216.77Z" transform="translate(-218.61 -55)"/></g></g><text class="cls-2" transform="translate(26.16 216.74)">Ahorra<tspan x="-2.43" y="42">tiempo</tspan></text></svg>